# xmcd CD database file
#
# Track frame offsets:
#	150
#	8007
#	23665
#	48822
#	60225
#	75375
#	88527
#	99752
#	108017
#	120937
#	133992
#	148332
#	168197
#	195457
#	209790
#	216642
#	239092
#	263025
#	267542
#
# Disc length: 3636 seconds
#
# Revision: 0
# Processed by: cddbd v1.5.1PL0 Copyright (c) Steve Scherf et al.
# Submitted via: CDex 1.51
#
DISCID=030e3213
DTITLE=Light Crust Doughboys and SMU Mustang Band - The High Road On The Hilltop
DYEAR=1997
DGENRE=Country
TTITLE0=Introduction: Western Peruna and LCD Theme
TTITLE1=Doughboy Parade
TTITLE2=The High Road
TTITLE3=Smokey's Smoke
TTITLE4=Texas Women
TTITLE5=Johnny's Stomp
TTITLE6=Bonaparte's Retreat
TTITLE7=Spaghetti Rag
TTITLE8=Pussy, Pussy, Pussy
TTITLE9=M-i-s-s-i-s-s-i-p-p-i
TTITLE10=You Are My Sunshine
TTITLE11=Sugar Blues
TTITLE12=Hangin' 'Round Deep Ellum
TTITLE13=The World Is Waiting For The Sunrise
TTITLE14=Texas In My Soul
TTITLE15=That's All Brother, Sit Down
TTITLE16=Western Medley: Movie and TV Cowboy Themes
TTITLE17=Varsity
TTITLE18=Bill Melton and LCD Closing Theme
EXTD=YEAR: 1997
EXTT0=
EXTT1=
EXTT2=
EXTT3=
EXTT4=
EXTT5=
EXTT6=
EXTT7=
EXTT8=
EXTT9=
EXTT10=
EXTT11=
EXTT12=
EXTT13=
EXTT14=
EXTT15=
EXTT16=
EXTT17=
EXTT18=
PLAYORDER=
